<svg version="1.1" viewBox="0.0 0.0 960.0 720.0" fill="none" stroke="none" stroke-linecap="square" stroke-miterlimit="10" xmlns:xlink="http://www.w3.org/1999/xlink" xmlns="http://www.w3.org/2000/svg"><clipPath id="p.0"><path d="m0 0l960.0 0l0 720.0l-960.0 0l0 -720.0z" clip-rule="nonzero"/></clipPath><g clip-path="url(#p.0)"><path fill="#000000" fill-opacity="0.0" d="m0 0l960.0 0l0 720.0l-960.0 0z" fill-rule="evenodd"/><path fill="#000000" d="m307.46396 268.1096l84.330536 -82.55823l88.205505 90.09906l88.205505 -90.09906l84.33057 82.55823l-89.95923 91.89041l89.95923 91.89041l-84.33057 82.5582l-88.205505 -90.09903l-88.205505 90.09903l-84.330536 -82.5582l89.9592 -91.89041z" fill-rule="evenodd"/><path stroke="#000000" stroke-width="1.0" stroke-linejoin="round" stroke-linecap="butt" d="m307.46396 268.1096l84.330536 -82.55823l88.205505 90.09906l88.205505 -90.09906l84.33057 82.55823l-89.95923 91.89041l89.95923 91.89041l-84.33057 82.5582l-88.205505 -90.09903l-88.205505 90.09903l-84.330536 -82.5582l89.9592 -91.89041z" fill-rule="evenodd"/></g></svg>